name rise44.8762peak52.3436fall86.788.mot
datacolumns 19
datarows 18
range 3.58832300000000 3.61665400000000
endheader
time	ground_force1_vx	ground_force1_vy	ground_force1_vz	ground_force1_px	ground_force1_py	ground_force1_pz	ground_force2_vx	ground_force2_vy	ground_force2_vz	ground_force2_px	ground_force2_py	ground_force2_pz	ground_torque1_x	ground_torque1_y	ground_torque1_z	ground_torque2_x	ground_torque2_y	ground_torque2_z	
3.58832300000000	55.09653400000000	682.98377900000003	43.65456000000000	0.28402600000000	0.00000000000000	0.09366500000000	-0.98912400000000	21.07968800000000	1.76024800000000	0.00000000000000	0.00000000000000	0.00000000000000	0.00000000000000	12.94731600000000	0.00000000000000	0.00000000000000	-0.31598600000000	0.00000000000000	
3.58999000000000	54.86803000000000	688.84538699999996	43.94573800000000	0.28362700000000	0.00000000000000	0.09361800000000	-0.55913800000000	15.51869400000000	1.36372000000000	0.00000000000000	0.00000000000000	0.00000000000000	0.00000000000000	13.07542400000000	0.00000000000000	0.00000000000000	-0.21641300000000	0.00000000000000	
3.59165400000000	54.64242900000000	694.66617299999996	44.23854000000000	0.28325100000000	0.00000000000000	0.09357200000000	-0.22539900000000	10.64079400000000	0.99672600000000	0.00000000000000	0.00000000000000	0.00000000000000	0.00000000000000	13.20502800000000	0.00000000000000	0.00000000000000	-0.13295900000000	0.00000000000000	
3.59331600000000	54.41942700000000	700.43805899999995	44.53265000000000	0.28289600000000	0.00000000000000	0.09352500000000	0.01938900000000	6.50350900000000	0.66908000000000	0.00000000000000	0.00000000000000	0.00000000000000	0.00000000000000	13.33591700000000	0.00000000000000	0.00000000000000	-0.06568400000000	0.00000000000000	
3.59498300000000	54.19863700000000	706.15288499999997	44.82767600000000	0.28255800000000	0.00000000000000	0.09347900000000	0.18478900000000	3.13264700000000	0.38798200000000	0.00000000000000	0.00000000000000	0.00000000000000	0.00000000000000	13.46784400000000	0.00000000000000	0.00000000000000	-0.01405400000000	0.00000000000000	
3.59665000000000	53.97959800000000	711.80244400000004	45.12314900000000	0.28223300000000	0.00000000000000	0.09343300000000	0.00000000000000	0.00000000000000	0.00000000000000	0.00000000000000	0.00000000000000	0.00000000000000	0.00000000000000	13.60052800000000	0.00000000000000	0.00000000000000	0.00000000000000	0.00000000000000	
3.59832000000000	53.76177700000000	717.37851599999999	45.41853100000000	0.28191800000000	0.00000000000000	0.09338900000000	0.00000000000000	0.00000000000000	0.00000000000000	0.00000000000000	0.00000000000000	0.00000000000000	0.00000000000000	13.73365700000000	0.00000000000000	0.00000000000000	0.00000000000000	0.00000000000000	
3.59998800000000	53.54457800000000	722.87289399999997	45.71321900000000	0.28160900000000	0.00000000000000	0.09334500000000	0.00000000000000	0.00000000000000	0.00000000000000	0.00000000000000	0.00000000000000	0.00000000000000	0.00000000000000	13.86689000000000	0.00000000000000	0.00000000000000	0.00000000000000	0.00000000000000	
3.60165600000000	53.32734800000000	728.27742400000000	46.00654700000000	0.28130200000000	0.00000000000000	0.09330100000000	0.00000000000000	0.00000000000000	0.00000000000000	0.00000000000000	0.00000000000000	0.00000000000000	0.00000000000000	13.99985900000000	0.00000000000000	0.00000000000000	0.00000000000000	0.00000000000000	
3.60331800000000	53.10938400000000	733.58403199999998	46.29779600000000	0.28099500000000	0.00000000000000	0.09325900000000	0.00000000000000	0.00000000000000	0.00000000000000	0.00000000000000	0.00000000000000	0.00000000000000	0.00000000000000	14.13217200000000	0.00000000000000	0.00000000000000	0.00000000000000	0.00000000000000	
3.60498700000000	52.88994000000000	738.78475700000001	46.58619800000000	0.28068300000000	0.00000000000000	0.09321900000000	0.00000000000000	0.00000000000000	0.00000000000000	0.00000000000000	0.00000000000000	0.00000000000000	0.00000000000000	14.26341800000000	0.00000000000000	0.00000000000000	0.00000000000000	0.00000000000000	
3.60664800000000	52.66823400000000	743.87177799999995	46.87094000000000	0.28036400000000	0.00000000000000	0.09317900000000	0.00000000000000	0.00000000000000	0.00000000000000	0.00000000000000	0.00000000000000	0.00000000000000	0.00000000000000	14.39316600000000	0.00000000000000	0.00000000000000	0.00000000000000	0.00000000000000	
3.60831700000000	52.44345300000000	748.83745199999998	47.15117500000000	0.28003400000000	0.00000000000000	0.09314100000000	0.00000000000000	0.00000000000000	0.00000000000000	0.00000000000000	0.00000000000000	0.00000000000000	0.00000000000000	14.52097200000000	0.00000000000000	0.00000000000000	0.00000000000000	0.00000000000000	
3.60998900000000	52.21476500000000	753.67433400000004	47.42602400000000	0.27969000000000	0.00000000000000	0.09310400000000	0.00000000000000	0.00000000000000	0.00000000000000	0.00000000000000	0.00000000000000	0.00000000000000	0.00000000000000	14.64637900000000	0.00000000000000	0.00000000000000	0.00000000000000	0.00000000000000	
3.61165000000000	51.98132400000000	758.37521000000004	47.69458400000000	0.27932900000000	0.00000000000000	0.09306800000000	0.00000000000000	0.00000000000000	0.00000000000000	0.00000000000000	0.00000000000000	0.00000000000000	0.00000000000000	14.76892500000000	0.00000000000000	0.00000000000000	0.00000000000000	0.00000000000000	
3.61331400000000	51.74227600000000	762.93312600000002	47.95593800000000	0.27894900000000	0.00000000000000	0.09303400000000	0.00000000000000	0.00000000000000	0.00000000000000	0.00000000000000	0.00000000000000	0.00000000000000	0.00000000000000	14.88814200000000	0.00000000000000	0.00000000000000	0.00000000000000	0.00000000000000	
3.61498400000000	51.49676600000000	767.34140700000000	48.20915700000000	0.27854500000000	0.00000000000000	0.09300200000000	0.00000000000000	0.00000000000000	0.00000000000000	0.00000000000000	0.00000000000000	0.00000000000000	0.00000000000000	15.00356000000000	0.00000000000000	0.00000000000000	0.00000000000000	0.00000000000000	
3.61665400000000	51.24395100000000	771.59368800000004	48.45331100000000	0.27811700000000	0.00000000000000	0.09297100000000	0.00000000000000	0.00000000000000	0.00000000000000	0.00000000000000	0.00000000000000	0.00000000000000	0.00000000000000	15.11471300000000	0.00000000000000	0.00000000000000	0.00000000000000	0.00000000000000	
